grf
version=1
nRows=21
nColumns=19
inDegrees=yes
endheader
time	ground_force_1_vx	ground_force_1_vy	ground_force_1_vz	ground_force_1_px	ground_force_1_py	ground_force_1_pz	ground_moment_1_mx	ground_moment_1_my	ground_moment_1_mz	ground_force_2_vx	ground_force_2_vy	ground_force_2_vz	ground_force_2_px	ground_force_2_py	ground_force_2_pz	ground_moment_2_mx	ground_moment_2_my	ground_moment_2_mz
3.275000	12.803089	1253.969482	-414.630066	0.170213	0.000000	-0.729465	0.000000	9.821239	0.000000	-16.181503	1307.785400	454.050507	0.181585	0.000000	-1.571536	0.000000	-8.899709	-0.000000
3.276000	16.929352	1256.715942	-416.515961	0.170083	0.000000	-0.730228	0.000000	8.769652	0.000000	-16.141884	1299.835327	455.939636	0.182266	0.000000	-1.573348	0.000000	-8.641764	-0.000000
3.277000	14.005871	1254.168579	-417.320190	0.168990	0.000000	-0.727884	0.000000	10.234086	0.000000	-15.256753	1301.114502	457.187012	0.181933	0.000000	-1.573838	0.000000	-8.864622	0.000000
3.278000	15.666931	1262.155518	-416.234314	0.169797	0.000000	-0.729618	0.000000	9.505988	0.000000	-15.659838	1316.237549	459.195862	0.181242	0.000000	-1.573320	0.000000	-9.149099	-0.000000
3.279000	15.746281	1254.620361	-416.879089	0.170156	0.000000	-0.728118	0.000000	9.411600	0.000000	-15.014351	1323.071289	459.438171	0.180714	0.000000	-1.571087	0.000000	-9.231400	-0.000000
3.280000	17.157131	1261.041138	-415.628571	0.169994	0.000000	-0.729602	0.000000	9.307817	0.000000	-14.853668	1313.365479	459.799530	0.181289	0.000000	-1.572395	0.000000	-8.964269	-0.000000
3.281000	16.426258	1254.801514	-415.187927	0.169680	0.000000	-0.728358	0.000000	9.775034	0.000000	-14.692986	1321.494629	460.765503	0.181425	0.000000	-1.571773	0.000000	-9.011441	-0.000000
3.282000	17.800663	1263.773926	-415.550598	0.169611	0.000000	-0.728820	0.000000	9.579602	0.000000	-13.768785	1325.795410	459.281067	0.181735	0.000000	-1.572549	0.000000	-9.270284	-0.000000
3.283000	18.802219	1256.397827	-414.302185	0.169627	0.000000	-0.728977	0.000000	9.756057	0.000000	-13.526522	1328.662476	462.534973	0.181323	0.000000	-1.572127	0.000000	-9.101799	-0.000000
3.284000	19.130642	1261.850098	-414.421753	0.169860	0.000000	-0.729905	0.000000	9.354235	0.000000	-13.163607	1325.146973	462.815979	0.180623	0.000000	-1.571968	0.000000	-9.278201	-0.000000
3.285000	18.724392	1254.811890	-413.496765	0.169279	0.000000	-0.728957	0.000000	9.769797	0.000000	-12.359368	1328.341553	464.223480	0.181102	0.000000	-1.571599	0.000000	-9.105809	-0.000000
3.286000	19.165939	1251.605347	-413.455902	0.169219	0.000000	-0.729132	0.000000	9.825405	0.000000	-12.722282	1334.407349	464.987183	0.181604	0.000000	-1.572722	0.000000	-8.974635	0.000000
3.287000	20.098415	1254.804810	-411.965820	0.170066	0.000000	-0.728743	0.000000	9.152663	0.000000	-12.882828	1324.519775	465.308441	0.180623	0.000000	-1.571804	0.000000	-9.346876	0.000000
3.288000	20.011082	1250.656860	-412.651672	0.169012	0.000000	-0.728647	0.000000	9.941497	0.000000	-12.440399	1337.118774	465.148743	0.180549	0.000000	-1.573111	0.000000	-9.501520	-0.000000
3.289000	20.899887	1256.098389	-411.806580	0.169210	0.000000	-0.729800	0.000000	9.752910	0.000000	-11.997143	1329.613525	466.475525	0.180500	0.000000	-1.571949	0.000000	-9.416620	0.000000
3.290000	20.657280	1250.656616	-410.557465	0.169467	0.000000	-0.728258	0.000000	9.608713	0.000000	-11.475754	1330.890869	466.916199	0.180796	0.000000	-1.572458	0.000000	-9.317259	-0.000000
3.291000	22.108749	1258.499390	-410.315063	0.169208	0.000000	-0.730895	0.000000	9.634795	0.000000	-11.595576	1323.859253	466.997925	0.179561	0.000000	-1.573266	0.000000	-9.922101	-0.000000
3.292000	22.106091	1251.787109	-409.950806	0.168646	0.000000	-0.730070	0.000000	9.877125	0.000000	-11.153286	1341.088135	467.560242	0.180982	0.000000	-1.572561	0.000000	-9.219995	-0.000000
3.293000	22.914406	1257.562256	-409.869507	0.168300	0.000000	-0.730989	0.000000	9.870233	0.000000	-10.911850	1331.048096	468.364838	0.180574	0.000000	-1.572520	0.000000	-9.442560	-0.000000
3.294000	22.097340	1252.744873	-409.710937	0.168607	0.000000	-0.728369	0.000000	10.298894	0.000000	-10.791061	1333.598877	469.049469	0.180185	0.000000	-1.571773	0.000000	-9.707318	-0.000000
3.295000	24.688217	1252.122314	-408.822632	0.168385	0.000000	-0.730331	0.000000	9.694595	0.000000	-10.389080	1335.828003	468.163513	0.180548	0.000000	-1.572101	0.000000	-9.434742	-0.000000
